<svg xmlns="http://www.w3.org/2000/svg" width="61.091" height="56.088" viewBox="0 0 61.091 56.088">
  <path id="Clients-Icon" d="M62.09,20.994a17.692,17.692,0,0,0-5.425-12.78,18.877,18.877,0,0,0-25.3-.648,18.779,18.779,0,0,0-25.181.806A17.313,17.313,0,0,0,1,20.92,18.95,18.95,0,0,0,6.486,34.25a5.217,5.217,0,0,0,1.344,5.5,5.584,5.584,0,0,0,3.91,1.564,5.732,5.732,0,0,0,.635,0,4.887,4.887,0,0,0,1.576,4.423,5.6,5.6,0,0,0,3.91,1.564,5.73,5.73,0,0,0,.635,0,4.887,4.887,0,0,0,1.576,4.423,5.584,5.584,0,0,0,3.91,1.564,5.716,5.716,0,0,0,.635-.2,5.412,5.412,0,0,0,0,.55,5.6,5.6,0,0,0,9.371,4l3.665-3.665a5.376,5.376,0,0,0,1.039-1.454,5.608,5.608,0,0,0,5.315-1.381,4.887,4.887,0,0,0,1.576-4.4h.476a5.632,5.632,0,0,0,3.934-1.588,4.948,4.948,0,0,0,1.564-4.484A5.439,5.439,0,0,0,57.3,33.028,17.655,17.655,0,0,0,62.09,20.994Zm-52.537,17a2.908,2.908,0,0,1,0-4.179l3.665-3.665a3.189,3.189,0,0,1,4.411,0,2.908,2.908,0,0,1,0,4.179l-3.665,3.665a3.189,3.189,0,0,1-4.411,0Zm6.109,5.938a2.908,2.908,0,0,1,0-4.179l3.665-3.665a3.177,3.177,0,0,1,4.411,0,2.908,2.908,0,0,1,0,4.179l-3.665,3.665a3.189,3.189,0,0,1-4.411,0Zm10.52,5.938a3.189,3.189,0,0,1-4.411,0,2.908,2.908,0,0,1,0-4.179l3.665-3.665a3.189,3.189,0,0,1,4.411,0,2.908,2.908,0,0,1,0,4.179Zm9.9,2.444-3.665,3.665a3.189,3.189,0,0,1-4.411,0,3.091,3.091,0,0,1-.929-2.2,2.835,2.835,0,0,1,.806-2.15l3.665-3.665a3.287,3.287,0,0,1,4.484.073,2.908,2.908,0,0,1,.024,4.24ZM54.441,37.464a3.164,3.164,0,0,1-4.374,0,1.222,1.222,0,0,0-.428-.257l-8.235-8a1.222,1.222,0,0,0-1.7,1.747l8.553,8.333a2.883,2.883,0,0,1,0,4.179,3.164,3.164,0,0,1-4,.305c-.086-.1-.159-.208-.257-.305L35.455,35.13a1.222,1.222,0,1,0-1.7,1.747l8.2,7.966a1.222,1.222,0,0,0,.257.367,3.069,3.069,0,0,0,.391.305,2.859,2.859,0,0,1,.623,1.772,2.908,2.908,0,0,1-.953,2.138,3.152,3.152,0,0,1-2.883.782h0a5.327,5.327,0,0,0-1.625-3.849,5.779,5.779,0,0,0-4.618-1.539,4.887,4.887,0,0,0-1.6-4.5,5.6,5.6,0,0,0-4.533-1.515,4.887,4.887,0,0,0-1.576-4.423A5.6,5.6,0,0,0,20.9,32.87a4.887,4.887,0,0,0-1.576-4.423,5.645,5.645,0,0,0-7.807,0L7.854,32.112h0A16.506,16.506,0,0,1,3.444,20.92a14.894,14.894,0,0,1,4.447-10.8,16.348,16.348,0,0,1,21.675-.892l-7.453,7.331a5.168,5.168,0,0,0-.22,7.722,5.62,5.62,0,0,0,7.783,0l7.978-7.758,8.553,8.553h0l8.272,8.21a2.883,2.883,0,0,1-.037,4.179ZM55.785,31.1l-7.868-7.771-9.408-9.334a14762.887,14762.887,0,0,1-.4-.269,1.222,1.222,0,0,0-.208,0,.648.648,0,0,0-.464,0,1.222,1.222,0,0,0-.232,0,1.222,1.222,0,0,0-.2.122,1.149,1.149,0,0,0-.2.134l-8.834,8.553a3.164,3.164,0,0,1-4.4,0,2.737,2.737,0,0,1-.855-2.053,2.847,2.847,0,0,1,1.051-2.089l8.467-8.247h0a16.433,16.433,0,0,1,22.725-.183A15.3,15.3,0,0,1,55.785,31.1Z" transform="translate(-0.999 -3.015)"/>
</svg>
