<svg xmlns="http://www.w3.org/2000/svg" width="83.832" height="58.288" viewBox="0 0 83.832 58.288">
  <g id="Experience-Icon" transform="translate(0.002 -19)">
    <path id="Path_7" data-name="Path 7" d="M27.748,79.377a2.74,2.74,0,0,0,1.273.342,1.927,1.927,0,0,0,1.5-.681,2.346,2.346,0,0,0,.442-2L30.478,74.2l2.069-2.01a2.1,2.1,0,0,0-1.227-3.781L28.455,68l-1.28-2.585a2.108,2.108,0,0,0-3.978,0L21.917,68l-2.863.414a2.1,2.1,0,0,0-1.229,3.781l2.07,2.011-.487,2.836a2.347,2.347,0,0,0,.441,2,2.186,2.186,0,0,0,2.775.34l2.563-1.342Zm-5.622-2.7.583-3.395-2.469-2.4,3.414-.494L25.186,67.3l1.532,3.094,3.413.494-2.469,2.4.584,3.4-3.06-1.6Z" transform="translate(-5.866 -15.528)"/>
    <path id="Path_8" data-name="Path 8" d="M12.344,53.854l-.412-2.511,1.735-1.769a2.174,2.174,0,0,0,.645-2.228A2.132,2.132,0,0,0,12.5,45.972l-2.348-.358-1.061-2.25A2.082,2.082,0,0,0,7.2,42a2.079,2.079,0,0,0-1.883,1.365L4.26,45.615l-2.348.357A2.132,2.132,0,0,0,.095,47.347a2.171,2.171,0,0,0,.646,2.227l1.735,1.769-.412,2.51A2.255,2.255,0,0,0,2.5,55.764a2.043,2.043,0,0,0,2.62.31L7.2,54.926,9.29,56.073a2.492,2.492,0,0,0,1.2.335,1.826,1.826,0,0,0,1.417-.643A2.261,2.261,0,0,0,12.344,53.854Zm-3.212-3.4.458,2.793L7.2,51.936,4.818,53.247l.457-2.79-2-2.042,2.761-.42L7.2,45.513l1.17,2.482,2.759.422Z" transform="translate(0 -7.937)"/>
    <path id="Path_9" data-name="Path 9" d="M100.319,68.41,97.455,68l-1.279-2.584a2.108,2.108,0,0,0-3.979,0L90.916,68l-2.864.415a2.1,2.1,0,0,0-1.228,3.781l2.07,2.011-.488,2.837a2.348,2.348,0,0,0,.442,2,2.19,2.19,0,0,0,2.776.339l2.561-1.342,2.563,1.342a2.742,2.742,0,0,0,1.273.342,1.925,1.925,0,0,0,1.5-.681,2.343,2.343,0,0,0,.441-2L99.478,74.2l2.069-2.01a2.1,2.1,0,0,0-1.228-3.781Zm-3.656,4.875.583,3.395-3.06-1.6-3.06,1.6.584-3.4-2.469-2.4,3.413-.494L94.186,67.3l1.532,3.094,3.414.494Z" transform="translate(-29.677 -15.528)"/>
    <path id="Path_10" data-name="Path 10" d="M120.312,47.347a2.131,2.131,0,0,0-1.816-1.375l-2.349-.358-1.061-2.248a1.982,1.982,0,0,0-3.767,0l-1.061,2.249-2.347.357a2.132,2.132,0,0,0-1.816,1.374,2.174,2.174,0,0,0,.645,2.228l1.734,1.769-.412,2.513a2.26,2.26,0,0,0,.436,1.91,2.045,2.045,0,0,0,2.618.308l2.086-1.147,2.086,1.148a2.5,2.5,0,0,0,1.2.334,1.825,1.825,0,0,0,1.418-.644,2.253,2.253,0,0,0,.434-1.91l-.412-2.511,1.734-1.768A2.171,2.171,0,0,0,120.312,47.347Zm-5.18,3.109.458,2.792L113.2,51.936l-2.387,1.311.458-2.79-2-2.042,2.76-.42,1.17-2.482,1.17,2.482,2.76.422Z" transform="translate(-36.578 -7.937)"/>
    <path id="Path_11" data-name="Path 11" d="M58.134,41.267A11.134,11.134,0,1,0,47,30.132,11.133,11.133,0,0,0,58.134,41.267Zm0-19.648a8.514,8.514,0,1,1-8.514,8.513A8.523,8.523,0,0,1,58.134,21.62Z" transform="translate(-16.219)"/>
    <path id="Path_12" data-name="Path 12" d="M65.107,87.246l3.442-3.512a2.887,2.887,0,0,0,.911-2.924,2.813,2.813,0,0,0-2.416-1.761l-4.712-.716-2.117-4.491a2.519,2.519,0,0,0-4.853,0l-2.118,4.49-4.712.716a2.812,2.812,0,0,0-2.416,1.762,2.882,2.882,0,0,0,.91,2.922l3.444,3.514-.814,4.972a3.034,3.034,0,0,0,.542,2.573,2.626,2.626,0,0,0,3.389.317l4.2-2.31,4.2,2.31a3.423,3.423,0,0,0,1.645.469,2.242,2.242,0,0,0,1.743-.786,3.03,3.03,0,0,0,.544-2.571Zm-1.77,5.4a2.185,2.185,0,0,1,.026.225c-.034-.016-.07-.035-.111-.057l-5.463-3-5.463,3c-.04.022-.077.041-.11.057a2.039,2.039,0,0,1,.026-.225L53.27,86.36,48.9,81.9a1.823,1.823,0,0,1-.182-.214,1.677,1.677,0,0,1,.212-.045l6.093-.926,2.714-5.755c.02-.042.038-.079.057-.113.019.034.038.072.057.114l2.712,5.753,6.092.926a1.642,1.642,0,0,1,.212.045,1.823,1.823,0,0,1-.184.216l-4.372,4.461Z" transform="translate(-15.874 -18.289)"/>
    <path id="Path_13" data-name="Path 13" d="M35.929,60.544A15.718,15.718,0,0,1,38.4,57.184a16.251,16.251,0,0,1,8.185-4.368,13.827,13.827,0,0,1-2.558-2.009,17.66,17.66,0,0,0-9.681,7.311A5.523,5.523,0,0,1,35.509,59.7Z" transform="translate(-11.852 -10.976)"/>
    <path id="Path_14" data-name="Path 14" d="M31.425,91.84a.763.763,0,0,1-.776-.631c0-.142,0-.277-.006-.418-.1-.047-.207-.088-.31-.141l-1.347-.706-.973.51c0,.276.01.552.017.825a3.373,3.373,0,0,0,3.395,3.181H41.443l.022-.134L39.028,91.84Z" transform="translate(-9.668 -24.481)"/>
    <path id="Path_15" data-name="Path 15" d="M74.743,52.971A16.663,16.663,0,0,1,82.8,57.377a16.351,16.351,0,0,1,2.6,3.52l.563-1.136a5.594,5.594,0,0,1,.969-1.38A18.229,18.229,0,0,0,77.315,51,13.814,13.814,0,0,1,74.743,52.971Z" transform="translate(-25.793 -11.042)"/>
    <path id="Path_16" data-name="Path 16" d="M90.58,90.65c-.1.052-.2.083-.3.129,0,.151,0,.3,0,.449a.757.757,0,0,1-.763.612H81.885l-2.436,2.485.022.135H89.514A3.355,3.355,0,0,0,92.9,91.279c.005-.272.008-.546.01-.821l-.979-.513Z" transform="translate(-27.417 -24.481)"/>
  </g>
</svg>
