<svg xmlns="http://www.w3.org/2000/svg" width="158.849" height="85.455" viewBox="0 0 158.849 85.455">
  <g id="logo-footer" transform="translate(-374.698 -747.195)">
    <g id="_2868565700432" transform="translate(431.725 747.195)">
      <g id="Group_1" data-name="Group 1" transform="translate(0 0)">
        <path id="Path_3" data-name="Path 3" d="M493.92,863.5c-7.848,0-14.21-6.771-14.21-15.117s6.362-15.117,14.21-15.117,14.211,6.767,14.211,15.117a15.031,15.031,0,0,1-10.143,14.486c.09,1.745.6,2.215,2.8,1.25,1.414,1.112,4.334,1.285,6.333,2.141a4.917,4.917,0,0,1-.987,4.472c-2.134-.515-2.373-1.9-4.362-.755l3.933,2.949c.948,4.437-.787,5.636-3.4,7.847h-1.813l-7.468-2.948,1.935.189.347-2.588.534-1.026,3.96,1.061c-.813-4.437-3.907.669-3.466-7.42,1.852-.977.518-1.269,2.332-2.777-1.962-1.515-1.987-.779-3.415-1.832-.438.044-.881.067-1.33.067Z" transform="translate(-472.745 -820.776)" fill="#fef226"/>
        <path id="Path_4" data-name="Path 4" d="M446,770.563c-.427,5.276,11.921,5.328,14.014,1.4.868-1.6-.08-2.794-1.72-2.142-1.093.428-2.026,1.508-3.626,1.938C449.778,773.045,449.045,769.7,446,770.563Zm10.908-16.092c2.72.6,2.559-.24,3.1-2.691.427-1.833,1.107-2.791.107-4.386-2.319-.549-2.28-.017-2.841,2.347C456.829,751.729,456.4,752.484,456.912,754.471Zm17.28.446c-6.945,3.118-5.4,9.048,1.189,2.691C477.447,755.619,475.687,754.249,474.192,754.916Zm-28.868.788c1.147-1.97-.282-5.894-2.067-7.4-2.587.8-1.906,1.594-1.158,3.958.707,2.192.64,4.182,3.227,3.443Zm-8.72,8.018c1.733-1.491.92-1.968-.4-3.665-.959-1.234-1.813-3.359-3.4-3-3.28.734,1.787,6.63,3.8,6.664ZM452,804.25l1.935.189.347-2.588-6.639-.443c2.626-1.559,5.347-.19,6.574-3.084-1.186-2.314-4.6-2.231-6.921-3.24l8.015-.617c1.026-.565,1.013-.8,1.505-1.8a1.592,1.592,0,0,1,.707-.823,1.542,1.542,0,0,1,.295-.225c.12-.1.253-.189.373-.292a3.474,3.474,0,0,1-.253-.292,3.906,3.906,0,0,1-.375-.392,2.118,2.118,0,0,1-.2-.208c-.026-.017-.041-.051-.067-.068l-.013-.017a2.462,2.462,0,0,1-.226-.306c-.08-.12-.134-.242-.215-.377s-.134-.257-.2-.395a1.031,1.031,0,0,0-.093-.154l-.013-.016a12.122,12.122,0,0,1-1.308.582,9.544,9.544,0,0,1-1.372.136,7.89,7.89,0,0,1-1.427-.136l-.08-.017c-4.733-.925-10.562-5.723-12.522-10.06a13.9,13.9,0,0,1,4.214-16.329,20.7,20.7,0,0,1,2.241-1.491,17.716,17.716,0,0,1,5.241-1.971,9.769,9.769,0,0,1,2.546-.086,11.063,11.063,0,0,1,1.308.2c5.067,1.08,9.481,5.812,11.014,10.574l.041.119a13.137,13.137,0,0,1-1.788,11.876,24.567,24.567,0,0,1-6.228,5.365c-.372.238-.678.493-1.065.734-.039.017-.813.482-.813.5.16.274.306.565.454.839a2.659,2.659,0,0,0,.226.327l.028.033c.08.1.16.186.253.292a3.555,3.555,0,0,1,.254.257,1.923,1.923,0,0,0,.174.171l.013.016a73.659,73.659,0,0,0,.225.258l.028.033c.454-.222.893-.46,1.334-.684h.013l.12-.051.107-.051c7.186-5.381,12.227-10.558,9.44-20.615-1.865-6.6-6.572-11.568-13.574-12.7-8.507-1.183-15.96,3.169-18.841,11.173a19.694,19.694,0,0,0-.959,4.884c-.694,9.87,5.227,13.5,12.294,18.333-2.826,1.391-8.628-.224-10.533,2.775.787,2.556,5.44,2.621,7.895,3.634-2.213.959-7.748.46-8.641,3.256.867,2.417,4.253,1.988,6.787,2.263,2.839.29,5.507.547,8.374.7Z" transform="translate(-431.725 -747.195)" fill="#fff"/>
        <path id="Path_5" data-name="Path 5" d="M526.334,863.659a2.855,2.855,0,1,1,2.894-2.854A2.872,2.872,0,0,1,526.334,863.659Z" transform="translate(-510.128 -841.874)" fill="#fcfcf3"/>
      </g>
    </g>
    <g id="Group_2" data-name="Group 2" transform="translate(-103 42)">
      <path id="Path_1" data-name="Path 1" d="M744.05,1061.553l2.38-.234a2.84,2.84,0,0,0,.867,1.729,2.643,2.643,0,0,0,1.764.552,2.734,2.734,0,0,0,1.769-.491,1.455,1.455,0,0,0,.6-1.148,1.093,1.093,0,0,0-.25-.721,1.989,1.989,0,0,0-.875-.514c-.284-.1-.93-.271-1.943-.521a6.634,6.634,0,0,1-2.743-1.184,3.124,3.124,0,0,1-.588-4.115,3.258,3.258,0,0,1,1.505-1.209,6.065,6.065,0,0,1,2.372-.417,5.075,5.075,0,0,1,3.412.994,3.512,3.512,0,0,1,1.2,2.652l-2.447.083a2.06,2.06,0,0,0-.666-1.327,2.449,2.449,0,0,0-1.533-.405,2.772,2.772,0,0,0-1.652.433.874.874,0,0,0-.385.743.908.908,0,0,0,.363.724,6.371,6.371,0,0,0,2.237.8,11.736,11.736,0,0,1,2.624.858,3.37,3.37,0,0,1,1.334,1.212,3.514,3.514,0,0,1,.48,1.9,3.472,3.472,0,0,1-.578,1.92,3.431,3.431,0,0,1-1.631,1.328,6.9,6.9,0,0,1-2.63.435,5.284,5.284,0,0,1-3.52-1.044,4.5,4.5,0,0,1-1.466-3.035Zm11.343-.563a4.613,4.613,0,0,1,.569-2.206,3.867,3.867,0,0,1,1.611-1.629,4.824,4.824,0,0,1,2.327-.563,4.575,4.575,0,0,1,3.244,7.749,4.359,4.359,0,0,1-3.227,1.29,5.13,5.13,0,0,1-2.295-.538,3.712,3.712,0,0,1-1.659-1.576,5.177,5.177,0,0,1-.569-2.527Zm2.38.122a2.843,2.843,0,0,0,.615,1.97,1.974,1.974,0,0,0,1.526.685,1.949,1.949,0,0,0,1.515-.685,2.887,2.887,0,0,0,.613-1.987,2.835,2.835,0,0,0-.613-1.954,1.951,1.951,0,0,0-1.515-.685,1.974,1.974,0,0,0-1.526.685,2.845,2.845,0,0,0-.615,1.97Zm8.471,4.3V1053.5h2.312v11.919Zm10.479,0v-1.293a3.581,3.581,0,0,1-2.907,1.51,3.251,3.251,0,0,1-1.586-.383,2.266,2.266,0,0,1-1.016-1.077,4.707,4.707,0,0,1-.315-1.917v-5.481h2.312v3.979a10.712,10.712,0,0,0,.129,2.237,1.2,1.2,0,0,0,.467.652,1.444,1.444,0,0,0,.861.242,1.863,1.863,0,0,0,1.067-.322,1.625,1.625,0,0,0,.644-.8,9.125,9.125,0,0,0,.174-2.335v-3.652h2.312v8.641h-2.144Zm8.522-8.641v1.814h-1.586v3.5a8.436,8.436,0,0,0,.045,1.241.506.506,0,0,0,.208.29.661.661,0,0,0,.392.113,3.026,3.026,0,0,0,.933-.219l.194,1.775a4.633,4.633,0,0,1-1.826.341,2.892,2.892,0,0,1-1.125-.209,1.639,1.639,0,0,1-.734-.537,2.124,2.124,0,0,1-.327-.9,11.316,11.316,0,0,1-.073-1.617v-3.783h-1.064v-1.814h1.064v-1.714l2.312-1.348v3.063h1.586Zm1.621-1.165v-2.115h2.312v2.115Zm0,9.806v-8.641h2.312v8.641Zm4.15-4.425a4.629,4.629,0,0,1,.568-2.206,3.878,3.878,0,0,1,1.613-1.629,4.823,4.823,0,0,1,2.327-.563,4.575,4.575,0,0,1,3.244,7.749,4.359,4.359,0,0,1-3.227,1.29,5.14,5.14,0,0,1-2.3-.539,3.719,3.719,0,0,1-1.659-1.576,5.193,5.193,0,0,1-.568-2.527Zm2.379.122a2.835,2.835,0,0,0,.617,1.969,1.971,1.971,0,0,0,1.524.685,1.947,1.947,0,0,0,1.515-.685,2.887,2.887,0,0,0,.614-1.987,2.835,2.835,0,0,0-.614-1.954,2.028,2.028,0,0,0-3.039,0,2.846,2.846,0,0,0-.617,1.97Zm16.439,4.3h-2.312v-4.4a6.669,6.669,0,0,0-.15-1.806,1.279,1.279,0,0,0-.486-.639,1.409,1.409,0,0,0-.81-.228,1.892,1.892,0,0,0-1.089.325,1.636,1.636,0,0,0-.662.861,7.22,7.22,0,0,0-.18,1.984v3.907h-2.312v-8.641h2.144v1.269a3.667,3.667,0,0,1,4.306-1.18,2.37,2.37,0,0,1,.965.694,2.454,2.454,0,0,1,.456.959,6.893,6.893,0,0,1,.129,1.534v5.363Zm1.515-2.43,2.33-.35a1.646,1.646,0,0,0,.6,1,2.046,2.046,0,0,0,1.269.344,2.333,2.333,0,0,0,1.354-.325.733.733,0,0,0,.3-.614.6.6,0,0,0-.166-.43,1.851,1.851,0,0,0-.774-.3,12.628,12.628,0,0,1-3.556-1.116,2.222,2.222,0,0,1-1.041-1.948,2.391,2.391,0,0,1,.9-1.893,4.228,4.228,0,0,1,2.785-.766,4.89,4.89,0,0,1,2.672.581,2.977,2.977,0,0,1,1.2,1.717l-2.177.4a1.345,1.345,0,0,0-.534-.78,1.969,1.969,0,0,0-1.122-.268,2.56,2.56,0,0,0-1.319.253.537.537,0,0,0-.264.463.5.5,0,0,0,.231.417,8.861,8.861,0,0,0,2.171.643,6.473,6.473,0,0,1,2.591,1.019,2.094,2.094,0,0,1,.729,1.7,2.6,2.6,0,0,1-1.007,2.042,4.5,4.5,0,0,1-2.98.855,4.986,4.986,0,0,1-2.836-.713,3.272,3.272,0,0,1-1.364-1.933Z" transform="translate(-182.992 -277.658)" fill="#fff"/>
      <path id="Path_6" data-name="Path 6" d="M748.46,952.289V940.37h8.947v2.015h-6.5v2.646h6.042v2.015h-6.042v3.229h6.736v2.015Zm19.21,0h-2.312v-4.4a6.673,6.673,0,0,0-.149-1.806,1.28,1.28,0,0,0-.486-.639,1.409,1.409,0,0,0-.81-.228,1.885,1.885,0,0,0-1.089.325,1.635,1.635,0,0,0-.662.861,7.229,7.229,0,0,0-.18,1.984v3.906H759.67v-8.639h2.144v1.267a3.667,3.667,0,0,1,4.306-1.18,2.361,2.361,0,0,1,.965.694,2.476,2.476,0,0,1,.456.959,6.886,6.886,0,0,1,.129,1.534Zm7.407-2.73,2.312.383a3.754,3.754,0,0,1-1.4,1.909,4.185,4.185,0,0,1-2.4.655,3.933,3.933,0,0,1-3.379-1.473,4.92,4.92,0,0,1-.867-2.983,4.745,4.745,0,0,1,1.137-3.366,3.757,3.757,0,0,1,2.875-1.218,3.909,3.909,0,0,1,3.08,1.274,5.59,5.59,0,0,1,1.078,3.9h-5.79a2.292,2.292,0,0,0,.56,1.581,1.748,1.748,0,0,0,1.328.566,1.42,1.42,0,0,0,.911-.292A1.79,1.79,0,0,0,775.077,949.559Zm.135-2.314a2.194,2.194,0,0,0-.518-1.512,1.591,1.591,0,0,0-1.2-.518,1.616,1.616,0,0,0-1.25.546,2.1,2.1,0,0,0-.483,1.485h3.452Zm6.4,5.044H779.3V943.65h2.144v1.227a3.609,3.609,0,0,1,1-1.141,1.888,1.888,0,0,1,1-.269,3.005,3.005,0,0,1,1.528.43l-.717,1.991a2.055,2.055,0,0,0-1.089-.374,1.3,1.3,0,0,0-.827.264,1.8,1.8,0,0,0-.531.954,13.366,13.366,0,0,0-.194,2.894v2.663Zm4.138.55,2.65.317a.925.925,0,0,0,.3.636,1.759,1.759,0,0,0,1.041.247,2.722,2.722,0,0,0,1.361-.269,1.11,1.11,0,0,0,.462-.578,3.483,3.483,0,0,0,.107-1.048l.012-1.263a3.16,3.16,0,0,1-2.633,1.409,3.241,3.241,0,0,1-2.8-1.47,4.937,4.937,0,0,1-.811-2.891,4.71,4.71,0,0,1,1.061-3.317,3.447,3.447,0,0,1,2.639-1.145,3.221,3.221,0,0,1,2.681,1.406V943.65h2.161V951.4a7.562,7.562,0,0,1-.257,2.283,2.794,2.794,0,0,1-.717,1.187,3.162,3.162,0,0,1-1.232.675,6.543,6.543,0,0,1-1.949.244,5.1,5.1,0,0,1-3.16-.755,2.361,2.361,0,0,1-.932-1.914c0-.075,0-.17.009-.277Zm2.076-5.045a3.087,3.087,0,0,0,.537,2.009,1.679,1.679,0,0,0,1.331.639,1.847,1.847,0,0,0,1.43-.655,2.814,2.814,0,0,0,.585-1.935,2.989,2.989,0,0,0-.559-1.989,1.784,1.784,0,0,0-1.415-.649,1.719,1.719,0,0,0-1.37.639,2.965,2.965,0,0,0-.537,1.942Zm8.455-5.311V940.37h2.312v2.113Zm0,9.806V943.65h2.312v8.639Zm3.745,0v-1.8l3.277-3.7c.54-.608.938-1.035,1.2-1.29-.27.016-.624.028-1.064.033l-3.089.016v-1.9h7.241v1.615l-3.346,3.8-1.179,1.26q.962-.05,1.2-.051h3.581v2.015h-7.816Zm14.449-2.73,2.312.383a3.755,3.755,0,0,1-1.4,1.909,4.184,4.184,0,0,1-2.4.655,3.933,3.933,0,0,1-3.379-1.473,4.92,4.92,0,0,1-.867-2.983,4.745,4.745,0,0,1,1.136-3.366,3.758,3.758,0,0,1,2.875-1.218,3.909,3.909,0,0,1,3.08,1.274,5.59,5.59,0,0,1,1.078,3.9h-5.79a2.3,2.3,0,0,0,.559,1.581,1.75,1.75,0,0,0,1.328.566,1.42,1.42,0,0,0,.912-.292A1.79,1.79,0,0,0,814.474,949.559Zm.135-2.314a2.194,2.194,0,0,0-.518-1.512,1.591,1.591,0,0,0-1.2-.518,1.616,1.616,0,0,0-1.25.546,2.1,2.1,0,0,0-.483,1.485h3.452Zm12.224,5.044H824.69v-1.267a3.6,3.6,0,0,1-1.269,1.113,3.233,3.233,0,0,1-1.475.372,3.362,3.362,0,0,1-2.594-1.2,4.852,4.852,0,0,1-1.078-3.351,4.783,4.783,0,0,1,1.049-3.343,3.444,3.444,0,0,1,2.653-1.144,3.3,3.3,0,0,1,2.543,1.2v-4.3h2.312v11.919Zm-6.179-4.486a3.945,3.945,0,0,0,.386,2.006,1.752,1.752,0,0,0,1.565.9,1.7,1.7,0,0,0,1.356-.675,3.079,3.079,0,0,0,.56-2.012,3.368,3.368,0,0,0-.543-2.15,1.722,1.722,0,0,0-1.389-.658,1.746,1.746,0,0,0-1.379.649,2.927,2.927,0,0,0-.554,1.939Z" transform="translate(-270.762 -165.136)" fill="#fff"/>
    </g>
  </g>
</svg>
