<svg xmlns="http://www.w3.org/2000/svg" width="64" height="65.439" viewBox="0 0 64 65.439">
  <g id="Projects-Icon" transform="translate(-9.509 -960.96)">
    <path id="Path_17" data-name="Path 17" d="M41.068,960.974a1.539,1.539,0,0,0-1.324,1.564V965.4a1.539,1.539,0,1,0,3.068,0v-2.858a1.539,1.539,0,0,0-1.745-1.564ZM28.4,966.69q-.061.012-.12.029a1.539,1.539,0,0,0-.932,2.647l1.9,1.925a1.55,1.55,0,1,0,2.166-2.2l-1.925-1.925a1.539,1.539,0,0,0-1.083-.481Zm25.509.029a1.539,1.539,0,0,0-.872.451L51.115,969.1a1.553,1.553,0,1,0,2.2,2.2l1.9-1.925a1.6,1.6,0,0,0-1.294-2.647Zm-12.634,1.9a12.169,12.169,0,0,0-8.964,4.121H20.282a1.23,1.23,0,0,0-.993.782L9.573,998.365a1.264,1.264,0,0,0,1.143,1.624l7.34.029V1024.2a2.2,2.2,0,0,0,2.166,2.2h6.648a1.25,1.25,0,0,0,1.2-1.2v-9.325c0-2.611,1.657-4.482,3.4-4.482s3.4,1.871,3.4,4.482v9.325a1.25,1.25,0,0,0,1.2,1.2H63.328a2.2,2.2,0,0,0,2.166-2.2v-24.065l6.8.029a1.265,1.265,0,0,0,1.143-1.654L63.388,973.486a1.234,1.234,0,0,0-1.113-.752H50.242a12.162,12.162,0,0,0-8.964-4.121Zm0,3.1a9.012,9.012,0,0,1,8.9,8.994,10.312,10.312,0,0,1-2.527,7.159,13.186,13.186,0,0,0-3.008,5.655H37.879a13.18,13.18,0,0,0-3.008-5.655,10.313,10.313,0,0,1-2.527-7.159,9.037,9.037,0,0,1,8.934-8.994Zm-20.064,3.429H30.63a11.929,11.929,0,0,0-1.354,5.565,13.976,13.976,0,0,0,3.158,8.994c1.447,1.913,2.488,3.043,2.527,5.234,0,.042,0,.077,0,.12s0,.1,0,.15v2.437l-22.5-.06,8.754-22.44Zm30.683,0h9.566l9.054,22.621-22.952-.06v-2.376a1.538,1.538,0,0,0,0-.271q0-.075,0-.15c.052-2.163,1.119-3.3,2.557-5.2a13.976,13.976,0,0,0,3.158-8.994,11.947,11.947,0,0,0-1.384-5.565Zm3.67,4.422a1.543,1.543,0,0,0,.331,3.068h3.459a1.539,1.539,0,1,0,0-3.068H55.9a1.542,1.542,0,0,0-.331,0Zm-32.518.06a1.54,1.54,0,1,0,.15,3.068h2.828a1.539,1.539,0,1,0,0-3.068H23.2Q23.124,979.62,23.049,979.624Zm7.791,10.258-.06.029a1.539,1.539,0,0,0-.933.451l-2.466,2.466a1.539,1.539,0,1,0,2.2,2.136l2.467-2.406a1.539,1.539,0,0,0-1.2-2.677Zm20.606,0-.03.029a1.539,1.539,0,0,0-.9,2.647l2.436,2.406a1.539,1.539,0,1,0,2.2-2.136l-2.467-2.467a1.539,1.539,0,0,0-1.233-.481Zm-13.416,6.708H44.5v4.181a.387.387,0,0,1-.391.391H38.42a.391.391,0,0,1-.391-.391Zm-17.567,3.429,14.5.029v.722a3.49,3.49,0,0,0,3.459,3.459h5.685a3.49,3.49,0,0,0,3.459-3.459v-.662l15.522.029v23.854H37.277v-8.122c0-3.663-2.457-6.889-5.805-6.889s-5.806,3.226-5.806,6.889v8.122h-5.2v-23.975Zm24.847,6.919a1.246,1.246,0,0,0-1.083,1.2v7.671a1.25,1.25,0,0,0,1.2,1.2h9.024a1.251,1.251,0,0,0,1.2-1.2v-7.671a1.251,1.251,0,0,0-1.2-1.2H45.309Zm1.324,2.406H53.25v5.264H46.633v-5.264Z"/>
  </g>
</svg>
