<svg xmlns="http://www.w3.org/2000/svg" width="66.803" height="45.826" viewBox="0 0 66.803 45.826">
  <g id="Staff-Icon" transform="translate(-5.797 -972.039)">
    <path id="Path_18" data-name="Path 18" d="M39.187,972.039A11.355,11.355,0,0,0,27.8,983.35a11.2,11.2,0,0,0,2.031,6.47,16.333,16.333,0,0,0-2.857,2.007,12.039,12.039,0,0,0-1.063-.685,8.3,8.3,0,0,0,1.275-4.416,8.525,8.525,0,0,0-17.049,0,8.3,8.3,0,0,0,1.275,4.416A11.6,11.6,0,0,0,5.8,1001.32v4.628a2.062,2.062,0,0,0,.945,1.44c5.721,4.018,9.991,4.681,15.066,3.778l.023.023c14.525,11.605,28.567,5.726,34.783-.023,5.05.879,10.177-.424,15.089-3.825a1.649,1.649,0,0,0,.9-1.629v-4.392a11.6,11.6,0,0,0-5.62-10.2,8.283,8.283,0,0,0,1.275-4.392,8.513,8.513,0,0,0-17.025,0,8.286,8.286,0,0,0,1.252,4.392,12.449,12.449,0,0,0-1.063.685,16.438,16.438,0,0,0-2.857-1.984,11.2,11.2,0,0,0,2.054-6.47,11.379,11.379,0,0,0-11.429-11.311Zm0,3.023a8.3,8.3,0,0,1,8.406,8.288,8.544,8.544,0,0,1-8.406,8.312,8.3,8.3,0,1,1,0-16.6Zm-20.52,6.21a5.432,5.432,0,1,1,0,10.862c-3.087-.188-5.452-2.094-5.5-5.408A5.446,5.446,0,0,1,18.666,981.272Zm41.064,0a5.432,5.432,0,1,1,0,10.862,5.341,5.341,0,0,1-5.478-5.408A5.426,5.426,0,0,1,59.731,981.272ZM31.985,992.087a11.346,11.346,0,0,0,7.2,2.6,11.479,11.479,0,0,0,7.249-2.574c4.223,2.006,7.3,5.817,7.3,11.854v5.738c-9.8,6.684-19.155,6.695-29.068-.047v-5.691c0-6.06,3.073-9.862,7.32-11.878Zm-8.147,1.322a9.4,9.4,0,0,1,1.039.661,15.974,15.974,0,0,0-3.235,9.894v4.156c-4.264.889-8.431-.06-12.822-2.975v-3.825a8.241,8.241,0,0,1,4.7-7.887,8.537,8.537,0,0,0,10.319-.024Zm30.745,0a8.456,8.456,0,0,0,10.3,0,8.261,8.261,0,0,1,4.7,7.911v3.8c-4.4,2.938-8.589,3.888-12.822,3.023v-4.18a15.975,15.975,0,0,0-3.235-9.918,10.2,10.2,0,0,1,1.063-.638Z" fill-rule="evenodd"/>
  </g>
</svg>
